<svg width="20" height="20" viewBox="0 0 20 20" fill="none" xmlns="http://www.w3.org/2000/svg">
<path d="M16.859 0H2.891C1.295 0 0 1.263 0 2.821V16.928C0 18.487 1.295 19.749 2.891 19.749H16.859C18.458 19.749 19.751 18.486 19.751 16.928V2.821C19.75 1.263 18.457 0 16.859 0ZM15.51 14.484H4.241C3.834 14.484 3.504 14.154 3.504 13.746C3.504 13.34 3.834 13.008 4.241 13.008H15.51C15.916 13.008 16.246 13.34 16.246 13.746C16.246 14.154 15.916 14.484 15.51 14.484ZM15.51 10.613H4.241C3.834 10.613 3.504 10.282 3.504 9.875C3.504 9.467 3.834 9.137 4.241 9.137H15.51C15.916 9.137 16.246 9.467 16.246 9.875C16.246 10.282 15.916 10.613 15.51 10.613ZM15.51 6.74H4.241C3.834 6.74 3.504 6.411 3.504 6.003C3.504 5.596 3.834 5.266 4.241 5.266H15.51C15.916 5.266 16.246 5.596 16.246 6.003C16.246 6.411 15.916 6.74 15.51 6.74Z" fill="white"/>
</svg>
