<svg width="22" height="22" viewBox="0 0 22 22" fill="none" xmlns="http://www.w3.org/2000/svg">
<path fill-rule="evenodd" clip-rule="evenodd" d="M17.249 8.88388C17.2335 8.29233 17.2107 7.69943 17.1512 7.11114C17.0173 5.79251 16.2321 4.88318 14.9331 4.63765C14.2391 4.50619 13.5188 4.488 12.8097 4.47469C11.5109 4.45079 10.2115 4.4535 8.91247 4.4736C8.24216 4.48419 7.56533 4.50756 6.90479 4.61049C5.77683 4.78568 5.0063 5.4321 4.69477 6.55109C4.59482 6.90961 4.53643 7.28958 4.52774 7.66141C4.49433 9.07346 4.47369 10.486 4.4783 11.8989C4.48156 12.7976 4.5022 13.6994 4.58015 14.5943C4.69559 15.9178 5.4873 16.8239 6.78692 17.0738C7.48548 17.2077 8.21201 17.225 8.92687 17.2381C10.22 17.2631 11.5136 17.2549 12.8072 17.2408C13.4097 17.2343 14.0137 17.2011 14.6134 17.1422C15.1694 17.0876 15.6895 16.9056 16.1363 16.5504C16.8606 15.9746 17.1404 15.1804 17.183 14.2999C17.2409 13.1111 17.2525 11.9207 17.2841 10.7308C17.2735 10.7302 17.2631 10.7302 17.2525 10.7302C17.2528 10.1145 17.2653 9.49878 17.249 8.88388ZM10.8517 14.8624C8.62729 14.8613 6.85753 13.0731 6.85862 10.8272C6.85944 8.61419 8.65852 6.84876 10.9104 6.85121C13.1084 6.85365 14.872 8.65844 14.8695 10.903C14.8673 13.0885 13.0663 14.8629 10.8517 14.8624ZM15.0197 7.63641C14.4988 7.6269 14.0748 7.19344 14.0846 6.68093C14.0946 6.15837 14.5164 5.75259 15.0444 5.75747C15.5708 5.76182 15.9695 6.1771 15.9635 6.71352C15.9573 7.22413 15.5271 7.64537 15.0197 7.63641Z" fill="white"/>
<path fill-rule="evenodd" clip-rule="evenodd" d="M10.8609 8.25819C9.43282 8.26254 8.26331 9.43503 8.26575 10.8601C8.2682 12.2858 9.44396 13.4585 10.8677 13.4558C12.2941 13.4526 13.4656 12.2782 13.4631 10.8533C13.4604 9.42661 12.2838 8.25331 10.8609 8.25819Z" fill="white"/>
<path fill-rule="evenodd" clip-rule="evenodd" d="M18.5485 0.271729H3.17964C1.42374 0.271729 0 1.6615 0 3.37585V18.896C0 20.6104 1.42374 22.0001 3.17964 22.0001H18.5485C20.3044 22.0001 21.7281 20.6104 21.7281 18.896V3.37585C21.7281 1.6615 20.3044 0.271729 18.5485 0.271729ZM18.649 13.3148C18.64 14.1337 18.6129 14.9559 18.3399 15.743C17.8168 17.2528 16.7543 18.1689 15.2024 18.4671C14.4976 18.6026 13.7661 18.6171 13.0456 18.645C12.3174 18.6735 11.5873 18.6513 10.8581 18.6513C10.8581 18.6586 10.8581 18.6659 10.8578 18.673C9.80428 18.6545 8.75046 18.6448 7.69719 18.6146C6.78787 18.5885 5.90679 18.4242 5.11752 17.94C4.08353 17.305 3.45206 16.3717 3.2508 15.1862C3.13048 14.4776 3.08757 13.7494 3.0767 13.0291C3.05308 11.4856 3.06231 9.94155 3.07915 8.39776C3.08784 7.57861 3.115 6.75677 3.38823 5.9694C3.91134 4.46011 4.97384 3.54397 6.52577 3.24602C7.23058 3.11022 7.962 3.08064 8.68229 3.0695C10.2312 3.0456 11.7813 3.05455 13.3308 3.07166C14.1439 3.08062 14.9604 3.10833 15.7423 3.37831C17.2587 3.90195 18.1794 4.9661 18.4754 6.52672C18.6093 7.2318 18.6398 7.9632 18.6509 8.68349C18.6748 10.227 18.6656 11.7711 18.649 13.3148Z" fill="white"/>
</svg>
