<svg width="18" height="18" viewBox="0 0 18 18" fill="none" xmlns="http://www.w3.org/2000/svg">
<path d="M7.03156 17.4681C5.80136 17.4681 4.64553 16.991 3.77507 16.124L1.34862 13.7077C0.479613 12.8414 0 11.6894 0 10.464C0 9.23863 0.479613 8.08663 1.34862 7.22102C2.21908 6.35396 3.37636 5.87691 4.60511 5.87691C5.62221 5.87691 6.58876 6.20286 7.38481 6.80512L13.5755 0.637878C14.4293 -0.212626 15.9145 -0.212626 16.7684 0.637878C17.4416 1.3085 17.6005 2.30723 17.2328 3.13471L17.4713 3.37287C17.813 3.7125 18 4.16438 18 4.64504C18 5.12569 17.8122 5.57757 17.4713 5.9172C17.1737 6.21365 16.7915 6.39426 16.3776 6.43527C16.3198 6.82455 16.1421 7.19871 15.843 7.4966C15.1293 8.20895 13.8789 8.21111 13.1609 7.4966L13.1183 7.45415L10.5914 9.97184C12.0773 11.7722 11.9754 14.4445 10.288 16.1254C9.41678 16.991 8.26175 17.4681 7.03156 17.4681ZM4.6044 7.316C3.76068 7.316 2.96752 7.64339 2.3694 8.23846C1.77272 8.8328 1.44404 9.62359 1.44404 10.464C1.44404 11.3052 1.77272 12.0959 2.3694 12.6903L4.79584 15.1065C5.39252 15.7016 6.18712 16.029 7.03085 16.029C7.87458 16.029 8.66918 15.7016 9.26586 15.1065C10.4975 13.879 10.4975 11.8822 9.26586 10.654L9.07372 10.4633C8.79127 10.182 8.79127 9.7272 9.07372 9.44585L12.6068 5.92583C12.8777 5.656 13.3573 5.656 13.6282 5.92583L14.1815 6.47701C14.352 6.64682 14.6497 6.64681 14.8194 6.47772C14.9971 6.30143 14.9971 6.01578 14.8208 5.83949L14.2675 5.28903C14.1317 5.15376 14.0559 4.97099 14.0559 4.78031C14.0559 4.58891 14.1317 4.40614 14.2675 4.27087C14.5514 3.99025 15.018 3.98017 15.299 4.26151L15.9384 4.8976C16.0301 4.98898 16.137 5.00265 16.1941 5.00265C16.2511 5.00265 16.3581 4.98898 16.4498 4.8976C16.5415 4.80621 16.5553 4.69972 16.5553 4.6436C16.5553 4.58819 16.5408 4.48026 16.4498 4.38888L15.8048 3.74632C15.5339 3.47649 15.5209 3.04404 15.7751 2.7591C16.0612 2.43962 16.0489 1.95393 15.7469 1.65388C15.4392 1.34735 14.9047 1.34735 14.597 1.65388L7.92509 8.29961C7.64264 8.58096 7.18614 8.58096 6.9037 8.29961L6.84012 8.23629C6.24272 7.64339 5.44813 7.316 4.6044 7.316ZM7.03156 14.5892C6.57285 14.5892 6.14156 14.4114 5.81794 14.0898L3.39149 11.6729C2.72402 11.0073 2.72257 9.92363 3.39149 9.25661C4.04018 8.61118 5.17069 8.61118 5.81794 9.25661L8.24439 11.6736C8.9133 12.3392 8.91335 13.4228 8.24588 14.0898C7.9201 14.4122 7.48954 14.5892 7.03156 14.5892ZM4.6044 10.1949C4.56179 10.1949 4.48161 10.205 4.41226 10.2733C4.30752 10.3784 4.30752 10.5496 4.41226 10.6547L6.83871 13.0717C6.97524 13.2069 7.08573 13.2084 7.2237 13.0709C7.32845 12.9666 7.32848 12.7953 7.22229 12.6903L4.79584 10.2733C4.72722 10.2043 4.64702 10.1949 4.6044 10.1949Z" fill="white"/>
</svg>
