<svg width="11" height="12" viewBox="0 0 11 12" fill="none" xmlns="http://www.w3.org/2000/svg">
<path d="M5.49893 12C4.06532 12 2.61709 11.8804 1.19664 11.6443C0.648246 11.5378 0.183699 10.9994 0.126667 10.4156C0.0847456 10.0029 0.0437987 9.58861 0.00577705 9.17283C-0.0493056 8.60467 0.295327 7.94569 0.791071 7.67624C1.7148 7.2211 2.68777 6.90676 3.70168 6.73369L3.68559 6.61964C3.41213 6.37997 3.23518 6.07317 3.20935 5.779C3.1996 5.68262 3.18838 5.58472 3.17815 5.48633C2.95051 5.38541 2.78477 5.16291 2.75845 4.89296L2.64048 3.72029C2.6205 3.53107 2.67266 3.34237 2.79013 3.1915C2.82523 3.14659 2.8652 3.10622 2.90907 3.07191L2.87203 2.7187C2.83595 2.32361 2.75016 1.3977 3.44625 0.755366C3.91177 0.281562 4.66684 0 5.50088 0C6.33492 0 7.09097 0.281565 7.57355 0.771011C8.2516 1.3967 8.16679 2.32109 8.13071 2.71568L8.12194 2.81254C8.11219 2.90185 8.10293 2.98764 8.09318 3.0709C8.13608 3.1047 8.17507 3.14458 8.2092 3.18848C8.32619 3.33885 8.3798 3.52805 8.35982 3.7213L8.24283 4.89244C8.21894 5.16188 8.05223 5.38594 7.82215 5.48685L7.78706 5.79212C7.7661 6.07115 7.5911 6.37793 7.31666 6.61912L7.30155 6.73369C8.31351 6.90625 9.28258 7.21957 10.1912 7.66764C10.7025 7.94365 11.0481 8.60215 10.9945 9.17434L10.8766 10.4146C10.8166 11.0004 10.3511 11.5383 9.81488 11.6418C8.38175 11.8799 6.93352 12 5.49893 12ZM3.69534 4.47365C3.71825 4.47769 3.74116 4.48373 3.76407 4.4913C3.94394 4.55286 4.07263 4.71686 4.09457 4.91113C4.1243 5.16796 4.15258 5.42227 4.17939 5.6786C4.18816 5.71089 4.25835 5.82036 4.40118 5.91472C4.52304 5.99445 4.60396 6.12463 4.62297 6.27197L4.73362 7.08992C4.75264 7.22464 4.71851 7.36136 4.63857 7.46934C4.55863 7.57732 4.43969 7.64746 4.30905 7.66361C3.22348 7.79833 2.18666 8.10665 1.22734 8.57894C1.08452 8.65614 0.961681 8.92456 0.976792 9.07493C1.01384 9.49071 1.05478 9.90093 1.09573 10.3117C1.11084 10.4625 1.25952 10.6291 1.36432 10.6498C4.07751 11.1003 6.90817 11.1024 9.64719 10.6472C9.74127 10.6291 9.88995 10.4661 9.90506 10.3117L10.023 9.07746C10.0372 8.92507 9.91335 8.65613 9.75443 8.57035C8.81169 8.10562 7.77487 7.79784 6.68979 7.66312C6.55915 7.64697 6.44119 7.57683 6.36124 7.46885C6.2813 7.36137 6.24718 7.22513 6.26521 7.09041L6.37928 6.26692C6.40024 6.12211 6.48018 5.99395 6.59912 5.91574C6.74 5.82189 6.80775 5.71492 6.81702 5.68011L6.90476 4.90959C6.92767 4.71532 7.05636 4.55237 7.23623 4.49081C7.25816 4.48273 7.28108 4.47717 7.30399 4.47313L7.36004 3.91256C7.33323 3.90045 7.30691 3.88479 7.28205 3.86713C7.1324 3.76117 7.05246 3.57751 7.07342 3.39082L7.08024 3.34034C7.10413 3.13447 7.12802 2.93013 7.14995 2.72325L7.15872 2.6203C7.1948 2.22824 7.20844 1.78623 6.9072 1.50821C6.59279 1.18982 6.07218 1.00917 5.49991 1.00917C4.92763 1.00917 4.40898 1.18932 4.11065 1.49207C3.79283 1.78725 3.80599 2.22977 3.84206 2.62233L3.92493 3.39384C3.94589 3.58104 3.864 3.76421 3.71338 3.86916C3.68949 3.88581 3.66463 3.90043 3.63928 3.91203L3.69534 4.47365Z" fill="white"/>
</svg>
