<svg width="23" height="22" viewBox="0 0 23 22" fill="none" xmlns="http://www.w3.org/2000/svg">
<path fill-rule="evenodd" clip-rule="evenodd" d="M19.2766 0.00012207H3.90779C2.15189 0.00012207 0.728149 1.3899 0.728149 3.10425V18.6244C0.728149 20.3387 2.15189 21.7285 3.90779 21.7285H19.2766C21.0325 21.7285 22.4563 20.3387 22.4563 18.6244V3.10425C22.4563 1.3899 21.0325 0.00012207 19.2766 0.00012207ZM17.5085 12.0294C17.6663 12.2219 17.8437 12.3979 18.0159 12.5785C18.5604 13.1494 19.1137 13.7117 19.6458 14.2934C19.8065 14.4694 19.9263 14.6908 20.0344 14.9067C20.2183 15.2737 20.0972 15.5556 19.7069 15.6849C19.5559 15.7351 19.391 15.7614 19.2316 15.7655C18.4963 15.7848 17.7603 15.7973 17.0245 15.8027C16.5476 15.8065 16.1434 15.6039 15.8012 15.2913C15.538 15.0509 15.3047 14.7777 15.0576 14.5194C14.8248 14.2761 14.6073 14.014 14.3541 13.7934C13.928 13.4224 13.5336 13.5166 13.3533 14.0536C13.2392 14.3934 13.2001 14.7627 13.1632 15.1226C13.1216 15.5292 12.9722 15.7405 12.5732 15.7587C11.5919 15.8033 10.6188 15.7766 9.68231 15.4043C8.49894 14.9333 7.56871 14.1481 6.79247 13.1579C5.63246 11.6774 4.73536 10.0396 3.91594 8.35512C3.75352 8.02132 3.59762 7.68428 3.45123 7.34315C3.28093 6.94688 3.4132 6.71711 3.84315 6.70489C4.646 6.68262 5.4494 6.67663 6.2528 6.68152C6.59909 6.68369 6.81637 6.88358 6.94755 7.20678C7.39325 8.30541 7.95547 9.34241 8.65837 10.2995C8.78548 10.472 8.93215 10.636 9.09511 10.7743C9.42728 11.0565 9.71681 10.9783 9.82246 10.5589C9.9072 10.2216 9.95854 9.86768 9.96315 9.52057C9.97021 8.96189 9.94414 8.40157 9.89878 7.84451C9.85913 7.35889 9.57748 7.05796 9.09213 6.95856C9.04704 6.94959 9.00385 6.93002 8.92645 6.90395C9.02422 6.64892 9.20375 6.502 9.42565 6.44035C9.7092 6.36131 10.0055 6.28851 10.2972 6.28552C10.9974 6.27764 11.7022 6.27138 12.3972 6.34119C13.0021 6.40175 13.1833 6.64973 13.1838 7.26328C13.1838 8.01915 13.1523 8.77448 13.1414 9.53062C13.1376 9.78646 13.1493 10.0431 13.1667 10.2987C13.1729 10.3976 13.205 10.4981 13.2419 10.5915C13.3818 10.9429 13.6197 11.0187 13.8987 10.7686C14.1279 10.5632 14.337 10.3278 14.5198 10.0795C15.179 9.18269 15.6907 8.20329 16.1011 7.16985C16.2578 6.7744 16.3629 6.70569 16.7806 6.70406C17.6514 6.70026 18.5224 6.69673 19.3929 6.68831C20.0934 6.6818 20.2905 6.93737 19.985 7.57102C19.7283 8.10281 19.4108 8.6099 19.0748 9.09715C18.6577 9.70228 18.1905 10.2729 17.753 10.8639C17.6335 11.0258 17.5313 11.2029 17.4398 11.3824C17.3257 11.6073 17.3499 11.8354 17.5085 12.0294Z" fill="white"/>
</svg>
