<svg width="174" height="35" viewBox="0 0 174 35" fill="none" xmlns="http://www.w3.org/2000/svg">
<path d="M167.049 34.6354H167.577V31.184H168.825V30.7371H165.799V31.184H167.049V34.6354Z" fill="white"/>
<path d="M169.838 31.4679L170.888 34.6354H171.41L172.461 31.4679V34.6354H172.896V30.7371H172.261L171.167 34.0664L170.037 30.7371H169.31V34.6354H169.838V31.4679Z" fill="white"/>
<path d="M83.1207 25.2964V9.17659C83.1207 5.8881 84.6555 3.53318 87.9289 3.53318H108.121C108.244 3.53318 108.363 3.41057 108.363 3.28903V0.081742C108.363 0.0537777 108.355 0.026351 108.344 0H83.6558C78.3044 0.680285 75.6903 4.40975 75.6903 9.17659V25.2959C75.6903 28.5843 74.1124 30.9398 70.8825 30.9398H49.5587C49.4377 30.9398 49.3162 31.021 49.3162 31.1834V34.3912C49.3162 34.5241 49.3979 34.6257 49.4936 34.6596H73.7037C80.014 34.494 83.1207 30.4655 83.1207 25.2964Z" fill="white"/>
<path d="M0.165539 34.6601H7.25503C7.35075 34.6263 7.43249 34.5246 7.43249 34.3918V24.1187C7.43249 20.8302 9.28996 18.5559 11.996 18.5559H41.1978C47.7812 18.5559 50.9724 14.4957 50.9724 9.17659C50.9724 4.40975 48.3604 0.680285 43.0063 0H0.0343205C0.0219517 0.0268887 0.000980333 0.0478622 0.000980333 0.081742V3.28903C0.000980333 3.45144 0.0816449 3.53318 0.242977 3.53318H38.7337C42.0055 3.53318 43.5403 5.8881 43.5403 9.17659C43.5403 12.4656 42.0055 14.8205 38.7337 14.8205H8.28056C3.55513 14.8205 0.000980333 18.8409 0.000980333 24.1187V34.3918C0.000442558 34.5246 0.0574466 34.6257 0.165539 34.6601Z" fill="white"/>
<path d="M108.245 30.9403H147.019C147.137 30.9403 147.218 31.0215 147.218 31.1028V34.3918C147.218 34.5542 147.342 34.6354 147.461 34.6354H154.449C154.573 34.6354 154.691 34.5542 154.691 34.3918V31.184C154.691 31.0619 154.815 30.9403 154.934 30.9403H161.879C162.041 30.9403 162.122 30.8183 162.122 30.6973V27.4486C162.122 27.3265 162.041 27.205 161.879 27.205H154.934C154.815 27.205 154.691 27.0829 154.691 26.9613V3.53318C154.691 1.62139 153.981 0.403869 152.786 0H150.764C150.134 0.16187 149.449 0.451731 148.714 0.893244L106.953 26.6769C105.337 27.6916 104.771 28.828 105.175 29.6809C105.498 30.4122 106.425 30.9403 108.245 30.9403ZM114.302 26.6365L146.653 6.61893C146.857 6.45652 147.261 6.4974 147.261 6.94375V26.9613C147.261 27.0834 147.137 27.205 147.019 27.205H114.502C114.222 27.205 114.098 27.1243 114.06 27.0425C114.016 26.8801 114.097 26.7581 114.302 26.6365Z" fill="white"/>
</svg>
