<svg width="40" height="35" viewBox="0 0 40 35" fill="none" xmlns="http://www.w3.org/2000/svg">
<path d="M19.1604 15.6818L22.956 2.59574C19.6183 0.338416 15.9193 -1.46816 8.2208 1.72286L4.42163 14.8626C7.48029 13.5962 9.89501 13.0202 11.9198 13.0381C14.9928 13.0596 17.1535 14.3295 19.1604 15.6818Z" fill="white"/>
<path d="M3.80275 17.2737L3.75625 17.2952L0 30.3598C7.70924 27.1688 11.3403 29.0218 14.6816 31.2684L18.5237 18.0608C15.1931 15.8034 11.4798 14.1149 3.80275 17.2737Z" fill="white"/>
<path d="M24.9593 3.96948L21.1637 17.1306C24.4907 19.388 28.508 21.2339 35.8846 17.9391L39.673 4.82805C31.9817 8.00119 28.2827 6.21965 24.9593 3.96948Z" fill="white"/>
<path d="M20.5342 19.3345L16.7314 32.399C20.0727 34.6635 23.7717 36.4665 31.4595 33.2791L35.1227 20.5436C27.2847 23.2302 23.8683 21.5811 20.5342 19.3345Z" fill="white"/>
</svg>
