<svg width="133" height="35" viewBox="0 0 133 35" fill="none" xmlns="http://www.w3.org/2000/svg">
<path d="M15.5433 0.143443C14.2278 0.306297 12.5349 0.697148 11.4675 1.10971C10.2814 1.55485 8.82568 2.27141 8.82568 2.41255C8.82568 2.4994 9.08447 2.5754 9.505 2.61883C11.0146 2.79254 13.8181 3.97595 16.352 5.48507C16.9666 5.85421 17.5705 6.1582 17.6783 6.1582C17.7969 6.1582 18.39 5.85421 18.9938 5.48507C20.4387 4.60566 22.8217 3.44396 23.9215 3.07482C24.4175 2.91197 25.1939 2.7274 25.6575 2.6514C26.2182 2.5754 26.5094 2.47769 26.5094 2.39084C26.5094 2.07598 23.997 1.00114 22.2502 0.566865C19.9535 -0.00855467 17.84 -0.138838 15.5433 0.143443Z" fill="white"/>
<path d="M5.1164 5.20282C2.23741 8.15591 0.673915 11.3587 0.145561 15.4627C-0.102441 17.3735 -0.037745 19.002 0.371998 21.0866C0.770959 23.0951 1.68749 25.3533 2.76576 26.9493C3.47742 28.0133 3.59603 28.0024 3.68229 26.8625C4.01656 22.5848 7.31607 16.7112 12.8045 10.6747C13.2789 10.1427 13.6779 9.64332 13.6779 9.57817C13.6779 9.42618 12.0389 7.81935 10.8312 6.77708C9.21383 5.38739 7.1112 4.09541 6.49659 4.09541C6.25937 4.09541 5.95745 4.34512 5.1164 5.20282Z" fill="white"/>
<path d="M28.0512 4.41021C26.6818 5.07249 24.838 6.46218 23.0588 8.18844C22.3472 8.87242 21.7649 9.51299 21.7649 9.59984C21.7649 9.6867 22.2932 10.349 22.9402 11.0764C27.5983 16.2986 30.5528 21.2819 31.4693 25.451C31.588 25.983 31.685 26.7104 31.685 27.0796C31.685 27.6876 31.7066 27.7635 31.8899 27.7635C32.1379 27.7635 33.1191 26.2436 33.7337 24.8865C34.9845 22.1831 35.4266 19.9357 35.3188 16.8306C35.211 13.2369 34.2405 10.2947 32.2457 7.47188C31.3292 6.16904 29.3128 4.09536 28.9678 4.09536C28.8276 4.09536 28.4178 4.2365 28.0512 4.41021Z" fill="white"/>
<path d="M16.4814 13.9969C13.9259 16.2335 10.5509 19.7511 8.63161 22.194C6.59368 24.7779 4.40479 28.2739 4.40479 28.9253C4.40479 29.1316 5.53697 30.2933 6.56133 31.151C10.1628 34.1475 15.3924 35.5372 20.3093 34.8098C24.1048 34.2452 27.5553 32.5081 30.4235 29.7287C30.8656 29.3053 30.9303 29.1858 30.9303 28.795C30.9195 26.7973 27.0269 21.8465 20.5897 15.6472C18.8429 13.9644 17.8724 13.1067 17.7214 13.1067C17.5921 13.1067 17.0637 13.4867 16.4814 13.9969Z" fill="white"/>
<path d="M112.931 5.13281L120.528 15.4517L128.117 5.13281H131.608L122.294 17.7832L132.504 31.7028H129.013L120.528 20.1816L112.047 31.7028H108.551L118.756 17.7832L109.438 5.13281H112.931Z" fill="white"/>
<path d="M82.2957 18.7884C81.7415 18.3162 81.1397 17.9508 80.5554 17.6806C82.4834 16.634 83.7483 14.656 83.7483 12.3613C83.7483 10.661 83.1215 5.13403 75.1117 5.13403H64.323V16.5877H60.7285C60.2605 17.1951 59.2033 18.654 58.7992 19.2539H64.323V31.7004L75.1117 31.7015C80.9558 31.7015 84.5878 28.7326 84.5878 23.9457C84.5878 21.8538 83.7971 20.0754 82.2957 18.7885V18.7884ZM67.3057 7.90534H75.1117C77.2261 7.90534 80.7631 8.43152 80.7631 12.128C80.7631 14.9225 78.7012 16.5877 75.1117 16.5877H67.3057V7.90534ZM75.1117 28.9303H67.3058V19.2577H75.1117C78.0719 19.2577 81.6126 20.0752 81.6126 23.8881C81.6126 28.2722 77.5414 28.9303 75.1117 28.9303" fill="white"/>
<path d="M98.6207 4.51917C91.1589 4.51917 85.9429 10.2282 85.9429 18.4007C85.9429 26.5857 91.1589 32.2909 98.6207 32.2909C106.078 32.2909 111.277 26.5857 111.277 18.4007C111.277 10.2282 106.078 4.51917 98.6207 4.51917H98.6207ZM98.6207 29.4808C92.9355 29.4808 88.9531 24.9242 88.9531 18.4007C88.9531 11.8822 92.9355 7.32686 98.6207 7.32686C104.297 7.32686 108.26 11.8822 108.26 18.4007C108.26 24.9242 104.297 29.4808 98.6208 29.4808" fill="white"/>
<path d="M39.8168 5.13342L49.1303 17.7825L38.9185 31.7003H42.4167L50.8944 20.1822L59.3772 31.7003H62.8717L52.6586 17.7825L61.9784 5.13342H58.4864L50.8894 15.4548L43.2987 5.13342H39.8168Z" fill="white"/>
</svg>
