<svg width="70" height="55" viewBox="0 0 70 55" fill="none" xmlns="http://www.w3.org/2000/svg">
<path d="M47.5281 28.4811C48.8164 28.4811 49.8607 27.4368 49.8607 26.1485C49.8607 24.8603 48.8164 23.8159 47.5281 23.8159C46.2399 23.8159 45.1956 24.8603 45.1956 26.1485C45.1956 27.4368 46.2399 28.4811 47.5281 28.4811Z" fill="#27A8DF"/>
<path d="M52.3193 33.2737C53.6078 33.2737 54.6523 32.2292 54.6523 30.9408C54.6523 29.6523 53.6078 28.6078 52.3193 28.6078C51.0308 28.6078 49.9863 29.6523 49.9863 30.9408C49.9863 32.2292 51.0308 33.2737 52.3193 33.2737Z" fill="#EB1C24"/>
<path d="M52.3193 23.6889C53.6078 23.6889 54.6523 22.6444 54.6523 21.3559C54.6523 20.0675 53.6078 19.0229 52.3193 19.0229C51.0308 19.0229 49.9863 20.0675 49.9863 21.3559C49.9863 22.6444 51.0308 23.6889 52.3193 23.6889Z" fill="#FFDC17"/>
<path d="M57.113 28.4811C55.8239 28.4811 54.7786 27.4369 54.7786 26.1485C54.7786 24.8597 55.8239 23.8156 57.113 23.8156C58.4007 23.8156 59.4453 24.8597 59.4453 26.1485C59.4453 27.4369 58.4007 28.4811 57.113 28.4811Z" fill="#9AD730"/>
<path d="M52.3192 8.9029C48.7929 8.9029 45.3994 9.9642 42.5061 11.9735L42.1063 12.2496L42.1078 11.7658C42.1109 7.22688 41.2021 3.14447 39.5215 0.00012207C42.7861 10.2373 39.4896 22.0885 34.4546 29.7269C29.7674 36.838 23.5712 40.917 17.4571 40.9177C17.4555 40.9177 17.4548 40.9177 17.454 40.9177C13.9509 40.9177 10.5818 39.5989 7.43744 36.9966C6.50737 36.113 5.70702 35.1361 5.04437 34.0881L6.55111 30.1442L11.6492 30.0734C12.127 30.6699 14.5676 33.7108 15.5208 34.6165C15.5771 34.6709 15.6395 34.6869 15.7244 34.6842C15.878 34.6545 15.9724 34.5484 15.9583 34.4069C15.9495 34.3297 15.9085 34.2635 15.8491 34.2235C14.598 32.7689 12.6424 30.2941 12.4419 29.5127L14.7346 24.6954L20.8452 23.5881L24.2969 26.6974L22.9249 32.2504C22.8929 32.3847 22.9724 32.5205 23.1063 32.5563C23.2387 32.5917 23.376 32.5159 23.4152 32.3828L25.0372 26.8895L30.4297 24.1602C30.5328 24.1077 30.5879 23.9913 30.5613 23.8775L29.3467 18.5535C29.3223 18.4497 29.236 18.3713 29.1299 18.3584L24.3639 17.7779L20.7479 13.4931L21.7331 11.7441C25.65 12.8343 29.0066 15.494 30.9592 19.2147L31.2802 19.8286H36.2798C36.5525 19.0697 36.7998 18.3009 37.0204 17.5356H32.6512L32.5785 17.4104C29.4931 12.1629 23.7982 8.90328 17.7112 8.90328C8.20279 8.90328 0.466309 16.6398 0.466309 26.1489C0.466309 35.6576 8.20279 43.3937 17.7112 43.3937C20.3975 43.3937 23.0835 42.7558 25.4773 41.5473L25.542 41.5203C28.6833 40.0116 31.5199 37.7677 33.9723 34.8512L34.048 34.7599H37.3795L37.4537 34.8854C40.5368 40.1334 46.2332 43.3937 52.3195 43.3937C61.8294 43.3937 69.5651 35.6576 69.5651 26.1489C69.5648 16.6394 61.829 8.9029 52.3192 8.9029ZM28.5943 19.3242L29.3319 23.6257L27.8719 20.1927L25.8235 19.08L28.5943 19.3242ZM4.6168 33.3696C3.4022 31.1834 2.75933 28.7211 2.75933 26.1489C2.75933 24.873 2.91986 23.6341 3.22151 22.4514L4.92797 22.8836L5.80326 29.4716L4.6168 33.3696ZM5.28782 22.1985L3.38508 21.8721C4.74386 17.3294 8.20622 13.6864 12.6393 12.083L14.2948 13.915L10.3882 20.1573L5.28782 22.1985ZM11.5077 29.1221L12.7462 24.6178L10.6316 21.1923L13.7824 24.4344L11.5077 29.1221ZM23.3638 18.334L20.8156 22.5618L14.6379 23.9293L11.0656 20.3886L15.1907 14.2638L20.2918 13.9519L23.3638 18.334ZM19.884 12.9537L20.2161 11.4139C20.3595 11.4375 20.5021 11.4595 20.6425 11.4877L19.884 12.9537ZM52.3192 41.1C46.7426 41.1 41.6673 38.0279 39.0723 33.082L38.7489 32.4676H35.7868L36.0477 32.0739C39.1929 27.3388 41.2729 21.4537 41.9043 15.5024L41.9138 15.4099L41.9815 15.346C44.7721 12.67 48.4437 11.1963 52.3192 11.1963C60.5646 11.1963 67.2721 17.9042 67.2721 26.1493C67.2721 34.3928 60.5646 41.1 52.3192 41.1Z" fill="white"/>
<path d="M2.8115 49.7075H6.03612L5.76413 51.6806H2.53952L2.1382 54.5624H0L1.16933 46.1998H6.99281L6.70903 48.2076H3.02376L2.8115 49.7075Z" fill="white"/>
<path d="M8.93054 54.5621H6.81592L7.98526 46.1995H10.0999L8.93054 54.5621Z" fill="white"/>
<path d="M13.0644 49.7075H16.2898L16.0178 51.6806H12.7932L12.3911 54.5624H10.2529L11.4223 46.1998H17.2457L16.9627 48.2076H13.2771L13.0644 49.7075Z" fill="white"/>
<path d="M24.156 54.5621H21.8885L21.5697 52.8849H19.3372L18.5927 54.5621H16.3252L20.4122 46.1995H22.3373L24.156 54.5621ZM21.3335 51.0069L21.0855 48.5617H21.0029L20.0816 51.0069H21.3335Z" fill="white"/>
<path d="M28.0424 46.1995H30.1688L29.2832 52.4714H32.6844L32.4013 54.5621H26.873L28.0424 46.1995Z" fill="white"/>
<path d="M36.0516 49.4359H39.4417L39.1815 51.3142H35.7914L35.6145 52.5661H39.2998L39.0278 54.5624H33.2043L34.3737 46.1998H40.1972L39.9141 48.1958H36.2285L36.0516 49.4359Z" fill="white"/>
<path d="M47.2376 54.5621H44.97L44.6513 52.8849H42.4187L41.6743 54.5621H39.4067L43.4937 46.1995H45.4189L47.2376 54.5621ZM44.415 51.0069L44.167 48.5617H44.0845L43.1631 51.0069H44.415Z" fill="white"/>
<path d="M52.8373 48.68C52.7072 48.184 52.2588 47.9596 51.7859 47.9596C51.1952 47.9596 50.569 48.3137 50.4865 48.9162L50.0852 51.7867C50.0019 52.4246 50.5458 52.7434 51.1712 52.7434C51.7855 52.7434 52.4471 52.4246 52.53 51.7867L52.5768 51.4322H51.2423L51.4786 49.7075H54.8451L54.5613 51.7867C54.2893 53.7123 52.53 54.6804 50.8524 54.6804C49.1985 54.6804 47.6986 53.7119 47.9706 51.7867L48.3719 48.9162C48.6439 46.9675 50.4157 46.0815 52.0697 46.0815C53.1557 46.0815 54.3372 46.5304 54.7271 47.8648L52.8373 48.68Z" fill="white"/>
<path d="M57.6095 51.7395C57.5151 52.4128 58.0701 52.7434 58.6727 52.7434C59.2988 52.7434 59.9128 52.4128 60.0079 51.7395L60.7873 46.1998H62.9255L62.1453 51.7395C61.8741 53.7001 60.0547 54.6804 58.3897 54.6804C56.7121 54.6804 55.2001 53.7001 55.472 51.7395L56.2515 46.1998H58.3897L57.6095 51.7395Z" fill="white"/>
<path d="M65.8543 49.4359H69.2444L68.9842 51.3142H65.5941L65.4173 52.5661H69.1025L68.8306 54.5624H63.0071L64.1764 46.1998H69.9999L69.7169 48.1958H66.0312L65.8543 49.4359Z" fill="white"/>
</svg>
