<svg width="50" height="50" viewBox="0 0 50 50" fill="none" xmlns="http://www.w3.org/2000/svg">
<circle cx="25" cy="25.0001" r="24.5" stroke="white"/>
<path d="M24.7854 29.74C20.6963 29.74 17.371 26.4267 17.371 22.3545V15.7381C17.371 15.2285 17.7853 14.8149 18.2978 14.8149H31.273C31.7855 14.8149 32.1998 15.2285 32.1998 15.7381V22.3545C32.1998 26.4267 28.8726 29.74 24.7854 29.74ZM19.2246 16.6613V22.3545C19.2246 25.4093 21.7186 27.8936 24.7854 27.8936C27.8522 27.8936 30.3462 25.4093 30.3462 22.3545V16.6613H19.2246Z" fill="white"/>
<path d="M17.9048 22.9121C15.179 22.9121 12.963 20.7029 12.963 17.9879V15.7381C12.963 15.2285 13.3772 14.8149 13.8898 14.8149H18.3682C18.8807 14.8149 19.295 15.2285 19.295 15.7381C19.295 16.2477 18.8807 16.6613 18.3682 16.6613H14.8166V17.9879C14.8166 19.6847 16.2013 21.0658 17.9048 21.0658C18.4173 21.0658 18.8316 21.4793 18.8316 21.9889C18.8316 22.4985 18.4173 22.9121 17.9048 22.9121Z" fill="white"/>
<path d="M31.6658 22.9121C31.1533 22.9121 30.739 22.4985 30.739 21.9889C30.739 21.4793 31.1533 21.0658 31.6658 21.0658C33.3674 21.0658 34.754 19.6847 34.754 17.9879V16.6613H31.2024C30.6899 16.6613 30.2756 16.2477 30.2756 15.7381C30.2756 15.2285 30.6899 14.8149 31.2024 14.8149H35.6808C36.1933 14.8149 36.6076 15.2285 36.6076 15.7381V17.9879C36.6076 20.7029 34.3897 22.9121 31.6658 22.9121Z" fill="white"/>
<path d="M24.6658 33.1242C24.1533 33.1242 23.7391 32.7106 23.7391 32.2011V29.1241C23.7391 28.6145 24.1533 28.2009 24.6658 28.2009C25.1784 28.2009 25.5926 28.6145 25.5926 29.1241V32.2011C25.5926 32.7106 25.1784 33.1242 24.6658 33.1242Z" fill="white"/>
<path d="M31.9264 35.7416H17.4071C16.8946 35.7416 16.4803 35.328 16.4803 34.8184C16.4803 34.3089 16.8946 33.8953 17.4071 33.8953H31.9264C32.4389 33.8953 32.8532 34.3089 32.8532 34.8184C32.8532 35.328 32.4389 35.7416 31.9264 35.7416Z" fill="white"/>
<path d="M27.524 33.3552H21.8093C21.2968 33.3552 20.8825 32.9416 20.8825 32.432C20.8825 31.9224 21.2968 31.5088 21.8093 31.5088H27.524C28.0365 31.5088 28.4508 31.9224 28.4508 32.432C28.4508 32.9416 28.0365 33.3552 27.524 33.3552Z" fill="white"/>
</svg>
