<svg width="35" height="35" viewBox="0 0 35 35" fill="none" xmlns="http://www.w3.org/2000/svg">
<circle cx="17.5" cy="17.5" r="17" stroke="white"/>
<path d="M17.4984 25.846C15.2828 25.846 13.0446 25.6682 10.8493 25.317C10.0018 25.1587 9.2839 24.358 9.19576 23.4898C9.13097 22.876 9.06769 22.2599 9.00893 21.6415C8.9238 20.7966 9.45641 19.8166 10.2226 19.4158C11.6501 18.739 13.1538 18.2715 14.7208 18.0141L14.6959 17.8445C14.2733 17.4881 13.9998 17.0318 13.9599 16.5943C13.9448 16.451 13.9275 16.3054 13.9117 16.1591C13.5599 16.009 13.3037 15.6781 13.2631 15.2766L13.0807 13.5327C13.0499 13.2513 13.1305 12.9707 13.312 12.7463C13.3663 12.6795 13.428 12.6195 13.4958 12.5684L13.4386 12.0432C13.3828 11.4556 13.2503 10.0786 14.326 9.12336C15.0455 8.41873 16.2124 8 17.5014 8C18.7903 8 19.9588 8.41873 20.7046 9.14662C21.7525 10.0771 21.6214 11.4519 21.5656 12.0387L21.5521 12.1827C21.537 12.3155 21.5227 12.4431 21.5076 12.5669C21.5739 12.6172 21.6342 12.6765 21.6869 12.7418C21.8677 12.9654 21.9506 13.2468 21.9197 13.5342L21.7389 15.2759C21.702 15.6766 21.4444 16.0098 21.0888 16.1599L21.0345 16.6138C21.0021 17.0288 20.7317 17.485 20.3076 17.8437L20.2842 18.0141C21.8482 18.2707 23.3458 18.7367 24.75 19.4031C25.5403 19.8135 26.0744 20.7928 25.9915 21.6438L25.8092 23.4883C25.7166 24.3595 24.9971 25.1594 24.1684 25.3132C21.9536 25.6674 19.7154 25.846 17.4984 25.846ZM14.711 14.6531C14.7464 14.6591 14.7818 14.6681 14.8172 14.6793C15.0952 14.7709 15.2941 15.0148 15.328 15.3037C15.3739 15.6856 15.4176 16.0638 15.4591 16.445C15.4726 16.493 15.5811 16.6559 15.8018 16.7962C15.9902 16.9147 16.1152 17.1084 16.1446 17.3275L16.3156 18.5439C16.345 18.7442 16.2922 18.9476 16.1687 19.1082C16.0452 19.2687 15.8613 19.3731 15.6594 19.3971C13.9817 19.5974 12.3794 20.0559 10.8968 20.7583C10.6761 20.8731 10.4862 21.2723 10.5096 21.4959C10.5668 22.1143 10.6301 22.7243 10.6934 23.3352C10.7168 23.5595 10.9465 23.8072 11.1085 23.838C15.3016 24.5081 19.6763 24.5111 23.9093 23.8342C24.0547 23.8072 24.2845 23.5648 24.3078 23.3352L24.4901 21.4997C24.512 21.2731 24.3206 20.8731 24.075 20.7455C22.6181 20.0544 21.0157 19.5967 19.3388 19.3963C19.1369 19.3723 18.9546 19.268 18.831 19.1074C18.7075 18.9476 18.6547 18.745 18.6826 18.5446L18.8589 17.32C18.8913 17.1046 19.0148 16.914 19.1986 16.7977C19.4164 16.6581 19.5211 16.499 19.5354 16.4473L19.671 15.3014C19.7064 15.0125 19.9053 14.7701 20.1833 14.6786C20.2172 14.6666 20.2526 14.6583 20.288 14.6523L20.3746 13.8186C20.3332 13.8006 20.2925 13.7773 20.2541 13.7511C20.0228 13.5935 19.8993 13.3204 19.9316 13.0427L19.9422 12.9676C19.9791 12.6615 20.016 12.3576 20.0499 12.0499L20.0635 11.8968C20.1192 11.3138 20.1403 10.6564 19.6748 10.243C19.1889 9.76945 18.3843 9.5008 17.4999 9.5008C16.6154 9.5008 15.8139 9.76872 15.3528 10.219C14.8617 10.6579 14.882 11.316 14.9377 11.8998L15.0658 13.0472C15.0982 13.3256 14.9716 13.598 14.7389 13.7541C14.7019 13.7789 14.6635 13.8006 14.6243 13.8178L14.711 14.6531Z" fill="white"/>
</svg>
